<svg xmlns="http://www.w3.org/2000/svg" xmlns:xlink="http://www.w3.org/1999/xlink" width="500" zoomAndPan="magnify"
  viewBox="0 0 375 374.999991" height="500" preserveAspectRatio="xMidYMid meet" version="1.0">
  <path fill="#1f7f95"
    d="M 201.199219 227.609375 C 209.144531 254.667969 202.472656 285.105469 181.132812 306.445312 C 150.035156 337.550781 99.609375 337.542969 68.503906 306.445312 C 37.402344 275.355469 37.402344 224.9375 68.519531 193.839844 C 89.871094 172.5 120.3125 165.820312 147.375 173.773438 L 173.695312 147.425781 C 131.449219 127.316406 79.359375 134.738281 44.390625 169.726562 C -0.0273438 214.140625 -0.0273438 286.167969 44.390625 330.59375 C 88.804688 375.007812 160.832031 375.007812 205.273438 330.574219 C 240.246094 295.597656 247.65625 243.523438 227.554688 201.253906 Z M 201.199219 227.609375 "
    fillOpacity="1" fillRule="nonzero" />
  <path fill="#849bff"
    d="M 147.417969 173.722656 C 127.308594 131.449219 134.722656 79.359375 169.710938 44.390625 C 214.132812 -0.0273438 286.140625 -0.0273438 330.574219 44.390625 C 374.992188 88.8125 374.992188 160.839844 330.574219 205.253906 C 295.585938 240.246094 243.515625 247.65625 201.269531 227.546875 L 227.589844 201.199219 C 254.652344 209.164062 285.097656 202.472656 306.445312 181.132812 C 337.542969 150.035156 337.542969 99.609375 306.445312 68.519531 C 275.347656 37.421875 224.921875 37.402344 193.824219 68.519531 C 172.484375 89.871094 165.792969 120.324219 173.753906 147.375 Z M 207.410156 82.839844 C 184.011719 106.238281 184.011719 144.164062 207.410156 167.5625 C 230.816406 190.953125 268.753906 190.953125 292.125 167.5625 C 315.53125 144.164062 315.53125 106.238281 292.140625 82.832031 C 268.753906 59.441406 230.816406 59.441406 207.410156 82.839844 Z M 207.410156 82.839844 "
    fillOpacity="1" fillRule="nonzero" />
  <path fill="#36d6e7"
    d="M 238.34375 243.210938 C 240.261719 274.585938 229.238281 306.601562 205.265625 330.574219 C 160.824219 375.007812 88.796875 375.007812 44.378906 330.59375 C -0.0351562 286.167969 -0.0351562 214.140625 44.378906 169.726562 C 68.355469 145.746094 100.371094 134.710938 131.746094 136.628906 C 132.933594 148.710938 135.984375 160.710938 140.964844 172.195312 C 115.605469 166.972656 88.195312 174.175781 68.519531 193.847656 C 37.402344 224.949219 37.402344 275.355469 68.503906 306.453125 C 99.621094 337.550781 150.035156 337.5625 181.132812 306.453125 C 200.808594 286.777344 208.003906 259.359375 202.777344 234 C 214.265625 238.980469 226.265625 242.023438 238.34375 243.210938 Z M 82.28125 207.960938 C 58.890625 231.359375 58.890625 269.292969 82.28125 292.675781 C 105.679688 316.082031 143.625 316.082031 167.003906 292.691406 C 190.402344 269.292969 190.402344 231.347656 167.023438 207.941406 C 143.625 184.570312 105.679688 184.570312 82.28125 207.960938 Z M 82.28125 207.960938 "
    fillOpacity="1" fillRule="nonzero" />
</svg>